# xmcd
#
# Track frame offsets:
#	150
#	10222
#	22647
#	33430
#	47734
#	60605
#	72888
#	86256
#	101173
#	114244
#	128091
#	139016
#	152901
#	163326
#	175660
#	186233
#	196070
#	207820
#	220321
#	233235
#	244517
#
# Disc length: 3426 seconds
#
# Revision: 1
# Processed by: cddbd v1.5.2PL0 Copyright (c) Steve Scherf et al.
# Submitted via: audiograbber 1.83.01
#
DISCID=140d6015
DTITLE=James,Elmore - Dust my broom 1951-1961 [CD 1)
DYEAR=2017
DGENRE=Blues
TTITLE0=The way you treat me (Mean and evil)
TTITLE1=Happy home
TTITLE2=No love in my heart
TTITLE3=Dust my blues
TTITLE4=I was a fool
TTITLE5=Blues before sunrise
TTITLE6=Goodbye (Baby)
TTITLE7=Wild about you
TTITLE8=Long tall woman
TTITLE9=The 12 year old boy
TTITLE10=Coming home
TTITLE11=It hurts me too
TTITLE12=Elmore's contribution to jazz
TTITLE13=Cry for me baby
TTITLE14=Take me where you go
TTITLE15=Bobby's rock
TTITLE16=Knocking at your door
TTITLE17=The sky is crying
TTITLE18=Held my baby last night
TTITLE19=Rollin' and tumblin'
TTITLE20=I'm worried
EXTD=
EXTT0=
EXTT1=
EXTT2=
EXTT3=
EXTT4=
EXTT5=
EXTT6=
EXTT7=
EXTT8=
EXTT9=
EXTT10=
EXTT11=
EXTT12=
EXTT13=
EXTT14=
EXTT15=
EXTT16=
EXTT17=
EXTT18=
EXTT19=
EXTT20=
PLAYORDER=
